Coordinates
version=1
nRows=12
nColumns=34
inDegrees=yes

Units are S.I. units (second, meters, Newtons, ...)
If the header above contains a line with 'inDegrees', this indicates whether rotational values are in degrees (yes) or radians (no).

endheader
time	pelvis_tilt	pelvis_list	pelvis_rotation	pelvis_tx	pelvis_ty	pelvis_tz	hip_flexion_r	hip_adduction_r	hip_rotation_r	knee_angle_r	ankle_angle_r	subtalar_angle_r	mtp_angle_r	hip_flexion_l	hip_adduction_l	hip_rotation_l	knee_angle_l	ankle_angle_l	subtalar_angle_l	mtp_angle_l	lumbar_extension	lumbar_bending	lumbar_rotation	arm_flex_r	arm_add_r	arm_rot_r	elbow_flex_r	pro_sup_r	arm_flex_l	arm_add_l	arm_rot_l	elbow_flex_l	pro_sup_l
      1.98333330	    -13.98029022	      0.17784119	     -5.06645427	      1.46427416	      0.76866339	     -0.13207275	     41.63014096	    -10.84985160	     -5.60927873	     47.71073115	     21.10623995	     -7.70821747	      0.00000000	     39.86271497	     -7.11606881	     -6.00373195	     49.28848883	     25.62112923	     -3.94523111	      0.00000000	    -12.08580660	      3.01383510	     -0.68559712	     19.46305466	     -4.82045021	     28.49316436	     93.59342117	     86.22053703	     25.55114028	     -4.81060965	     22.94719321	     77.45684533	     85.96036420
      2.00000000	    -14.19420882	      0.03626994	     -5.02766338	      1.46293827	      0.76263233	     -0.13255471	     43.17117836	    -11.11187553	     -5.50621148	     50.11714651	     22.19451792	     -7.15425021	      0.00000000	     41.72058551	     -7.48591047	     -5.81983624	     52.15836755	     26.94331413	     -3.60528765	      0.00000000	    -12.82163159	      2.99489210	     -0.51043691	     20.29112223	     -4.47611757	     28.47099427	     94.34096438	     86.24838805	     27.03103311	     -4.42937216	     23.48452026	     78.92447249	     85.85181045
      2.01666670	    -14.24998285	     -0.08406794	     -4.99167900	      1.46157949	      0.75802144	     -0.13283461	     44.41852543	    -11.32919641	     -5.32989290	     52.34859408	     23.24703720	     -6.65705891	      0.00000000	     43.23277619	     -7.80513692	     -5.60493252	     54.73661546	     28.15874248	     -3.25053733	      0.00000000	    -13.65956797	      2.94961827	     -0.30987395	     21.21529544	     -4.19074275	     28.47276553	     95.08134642	     86.26861780	     28.40621861	     -3.98332859	     24.24073680	     80.46307439	     85.71209942
      2.03333330	    -14.13050482	     -0.19611899	     -4.98661642	      1.46011817	      0.75427137	     -0.13290100	     45.34362105	    -11.45750079	     -5.09761866	     54.35470408	     24.16419054	     -6.21884498	      0.00000000	     44.32908205	     -8.08614036	     -5.37283852	     56.91644091	     29.18916511	     -2.84661674	      0.00000000	    -14.66768429	      2.87035937	     -0.09255478	     22.36159770	     -3.97916215	     28.41064927	     95.86951230	     86.27473225	     29.76169925	     -3.46371574	     25.18380708	     82.09752553	     85.53526327
      2.05000000	    -13.85299670	     -0.30120574	     -4.99903355	      1.45868341	      0.75082427	     -0.13245513	     45.95938930	    -11.49194346	     -4.83650539	     56.06538019	     24.93027174	     -5.88127939	      0.00000000	     45.06813523	     -8.34747617	     -5.14802284	     58.75782796	     30.02822100	     -2.43789803	      0.00000000	    -15.85550269	      2.75177937	      0.15811236	     23.73698725	     -3.86377868	     28.19554565	     96.84703636	     86.25974856	     31.15358275	     -2.89167624	     26.25822089	     83.89992227	     85.30074500
      2.06666670	    -13.47554490	     -0.41386890	     -5.01492763	      1.45800193	      0.74692467	     -0.13145790	     46.36120873	    -11.43505409	     -4.56867668	     57.55883263	     25.59598212	     -5.71127332	      0.00000000	     45.58988975	     -8.63534225	     -4.92647920	     60.41918791	     30.72324868	     -2.14956693	      0.00000000	    -17.07406621	      2.62118830	      0.45618387	     25.22019274	     -3.83259221	     27.74895526	     98.14622705	     86.22568436	     32.52069593	     -2.17113845	     27.12474920	     85.90878570	     85.01028906
      2.08333330	    -13.09001678	     -0.53470832	     -5.01763215	      1.45892029	      0.74149657	     -0.13036162	     46.72263475	    -11.34367957	     -4.30878674	     59.06723249	     26.24669595	     -5.66310189	      0.00000000	     46.07170976	     -8.95835914	     -4.68472743	     62.08740716	     31.40378059	     -1.88047672	      0.00000000	    -18.16639487	      2.49464783	      0.75815277	     26.59987823	     -3.84249949	     27.07577896	     99.98582426	     86.18867353	     33.81198095	     -1.30659512	     27.41982168	     88.14468832	     84.63877306
      2.10000000	    -12.70798571	     -0.66521271	     -4.99682465	      1.46148893	      0.73642105	     -0.12951600	     46.99520410	    -11.24912863	     -4.07095832	     60.59116097	     26.91580226	     -5.73473535	      0.00000000	     46.46317161	     -9.28715779	     -4.42230552	     63.70385791	     32.11893186	     -1.57222241	      0.00000000	    -19.03010091	      2.43022839	      1.07285922	     27.69643460	     -3.85572302	     26.34639065	    102.25719121	     86.17979029	     34.99819380	     -0.27686110	     27.10300924	     90.59652694	     84.21404234
      2.11666670	    -12.24571496	     -0.80463548	     -4.90723776	      1.46567947	      0.73284271	     -0.12886144	     46.93045210	    -11.18092711	     -3.87177972	     61.97678479	     27.60378051	     -5.86240114	      0.00000000	     46.58209721	     -9.57464008	     -4.16356829	     65.17633327	     32.85021090	     -1.18035957	      0.00000000	    -19.70218247	      2.48807720	      1.41052413	     28.52074259	     -3.94496849	     25.85112571	    104.89268903	     86.24309046	     36.13524522	      0.85144673	     26.46815323	     93.16447618	     83.78318939
      2.13333330	    -11.67245317	     -0.93769408	     -4.72958918	      1.47139312	      0.73038476	     -0.12822433	     46.39613579	    -11.18507937	     -3.74985833	     63.10969492	     28.37474397	     -6.00268874	      0.00000000	     46.32741940	     -9.79413670	     -3.92507248	     66.45710975	     33.62126823	     -0.76047683	      0.00000000	    -20.09050985	      2.66435083	      1.80634681	     29.33101170	     -4.26418647	     25.70847831	    107.65025969	     86.39693654	     37.32530028	      1.90794192	     25.88154200	     95.67607874	     83.44629877
      2.15000000	    -11.06665329	     -1.06482720	     -4.48129462	      1.47834264	      0.72791344	     -0.12765060	     45.47429872	    -11.22190953	     -3.67746087	     63.94932904	     29.12212965	     -5.96302841	      0.00000000	     45.78021896	     -9.96780235	     -3.71560755	     67.50101796	     34.31277664	     -0.20052318	      0.00000000	    -20.15224389	      2.99246329	      2.34835489	     30.09446881	     -4.71325911	     25.77306726	    110.61487216	     86.69461385	     39.08585568	      2.74234032	     25.47579443	     98.35988600	     83.18387029
      2.16666670	    -10.54138780	     -1.14720084	     -4.16319210	      1.48638693	      0.72594112	     -0.12719843	     44.32605568	    -11.32861999	     -3.65234453	     64.51366832	     29.95275444	     -5.86524739	      0.00000000	     45.02971514	    -10.04564178	     -3.52618934	     68.25864009	     35.09619692	      0.44314873	      0.00000000	    -19.50829809	      3.36408254	      2.90620185	     30.87549354	     -5.31609641	     25.55193000	    113.40173945	     87.13639603	     41.43193152	      3.10104342	     25.11959622	    100.73200638	     83.03878609
